<svg width="48px" height="48px" viewBox="0 0 48 48" version="1.1" xmlns="http://www.w3.org/2000/svg" xmlns:xlink="http://www.w3.org/1999/xlink">
    <title>any missing icon</title>
    <g id="any-missing-icon" stroke="none" stroke-width="1" fill="none" fill-rule="evenodd">
        <g id="Group-2">
            <circle id="Oval" fill="#EBEEF2" cx="24" cy="24" r="24"></circle>
            <g id="image" transform="translate(12.000000, 15.000000)" fill="#FFFFFF" fill-rule="nonzero">
                <path d="M23.2173297,0 L0.782623471,0 C0.350389941,0 0,0.350436816 0,0.782623471 C0,0.957420005 0,17.2817475 0,17.4782471 C0,17.9104338 0.350389941,18.2608706 0.782623471,18.2608706 L23.2173765,18.2608706 C23.6495632,18.2608706 24,17.9104806 24,17.4782471 C24,17.2198257 24,1.344888 24,0.782623471 C24,0.350436816 23.6495632,0 23.2173297,0 Z M22.4347531,8.30393691 L18.6365261,4.27756977 C18.3313236,3.95399228 17.8089496,3.94785166 17.4979346,4.27756977 L10.1603708,12.0562733 L6.50619042,8.18224964 C6.20201914,7.85979715 5.67908266,7.85220341 5.36759889,8.18224964 L1.56524694,12.2132105 L1.56524694,1.56524694 L22.4347531,1.56524694 L22.4347531,8.30393691 Z" id="Shape"></path>
                <path d="M9.03139903,3.02478576 C7.87635962,3.02478576 6.93661145,3.96453392 6.93661145,5.11953167 C6.93661145,6.27457108 7.87635962,7.21431924 9.03139903,7.21431924 C10.1864384,7.21431924 11.1261449,6.27457108 11.1261449,5.11953167 C11.1261449,3.96453392 10.1863968,3.02478576 9.03139903,3.02478576 Z" id="Path"></path>
            </g>
        </g>
    </g>
</svg>